<svg height="24" viewBox="0 0 24 24" width="24" xmlns="http://www.w3.org/2000/svg"><path d="m12.0000236 0c3.2589809 0 3.6676334.01381388 4.947561.07221328 1.27726.05825648 2.1495827.26113001 2.9128713.55779505.7891057.30662053 1.4583168.71694042 2.1254797 1.38405569.6671158.66716282 1.0774351 1.33637394 1.3841034 2.12548.2966173.76328848.4994911 1.63561125.5577478 2.91287134.058399 1.27992763.0722132 1.68858036.0722132 4.94760854 0 3.2589805-.0138142 3.6676332-.0722132 4.9475607-.0582567 1.2772601-.2611305 2.149583-.5577478 2.9128714-.3066683.7891061-.7169876 1.4583172-1.3841034 2.1254801-.6671629.6671151-1.336374 1.0774351-2.1254797 1.3841033-.7632886.2966173-1.6356113.4994908-2.9128713.5577474-1.2799276.0583993-1.6885801.0722132-4.947561.0722132-3.25902808 0-3.66768051-.0138139-4.94760829-.0722132-1.27725993-.0582566-2.14958262-.2611301-2.91287117-.5577474-.78910644-.3066682-1.45831755-.7169882-2.12548052-1.3841033-.66711494-.6671629-1.07743514-1.336374-1.38405537-2.1254801-.29666534-.7632884-.49953834-1.6356113-.55779497-2.9128714-.05839917-1.2799275-.07221328-1.6885802-.07221328-4.9475607 0-3.25902818.01381411-3.66768091.07221328-4.94760854.05825663-1.27726009.26112963-2.14958286.55779497-2.91287134.30662023-.78910606.71694043-1.45831718 1.38405537-2.12548.66716297-.66711527 1.33637408-1.07743516 2.12548052-1.38405569.76328855-.29666504 1.63561124-.49953857 2.91287117-.55779505 1.27992778-.0583994 1.68858021-.07221328 4.94760829-.07221328zm4.8490062 2.23213276c-1.2653514-.05773244-1.6448998-.06997443-4.8490062-.06997443-3.20415352 0-3.58370202.01224199-4.84905344.06997443-1.1699881.05335015-1.80537929.24884046-2.22822694.413178-.56012895.2176877-.9598738.47772213-1.37976853.89766411-.41994197.41989441-.67997625.81963958-.89766417 1.37976861-.1643371.42284772-.35982777 1.05823862-.41317785 2.2282268-.05773221 1.26535158-.06997458 1.64489984-.06997458 4.84905362 0 3.2041059.01224237 3.5836543.06997458 4.8490059.05335008 1.169988.24884075 1.805379.41317785 2.2282268.21768792.560129.47777022.9598742.89766417 1.3797685.41989473.419942.81963958.6799765 1.37976853.8976642.42284765.1643376 1.05823884.3598278 2.22822694.413178 1.26520888.0577325 1.64466209.0699744 4.84905344.0699744 3.2043442 0 3.5838454-.0122419 4.8490062-.0699744 1.1699882-.0533502 1.8053786-.2488404 2.2282263-.413178.5601296-.2176877.9598745-.4777222 1.3797692-.8976642.4199419-.4198943.6799763-.8196395.8976642-1.3797685.1643371-.4228478.3598277-1.0582388.4131778-2.2282268.0577322-1.2653516.0699746-1.6449.0699746-4.8490059 0-3.20415378-.0122424-3.58370204-.0699746-4.84905362-.0533501-1.16998818-.2488407-1.80537908-.4131778-2.2282268-.2176879-.56012903-.4777223-.9598742-.8976642-1.37976861-.4198947-.41994198-.8196396-.67997641-1.3797692-.89766411-.4228477-.16433754-1.0582381-.35982785-2.2282263-.413178zm-4.8490062 13.76786724c2.209126 0 3.9999767-1.7908506 3.9999767-3.9999761 0-2.20917324-1.7908507-4.0000239-3.9999767-4.0000239-2.20917314 0-4.00002334 1.79085066-4.00002334 4.0000239 0 2.2091255 1.7908502 3.9999761 4.00002334 3.9999761zm0-10.16215826c3.4032641 0 6.1621342 2.75887034 6.1621342 6.16218216 0 3.4032641-2.7588701 6.1621344-6.1621342 6.1621344-3.40331136 0-6.16218219-2.7588703-6.16218219-6.1621344 0-3.40331182 2.75887083-6.16218216 6.16218219-6.16218216zm7.845618-.2434578c0 .79529852-.6447271 1.4399781-1.440026 1.4399781-.7952508 0-1.4399779-.64467958-1.4399779-1.4399781s.6447271-1.44002566 1.4399779-1.44002566c.7952989 0 1.440026.64472714 1.440026 1.44002566z" fill-rule="evenodd"/></svg>