<svg height="24" viewBox="0 0 12 24" width="12" xmlns="http://www.w3.org/2000/svg"><path d="m9.29899796 12.7365847v11.2634153h4.24910564v-11.2634153h4.2107761l.1587939-4.04650658h-4.36957v-2.96232752c0-.64065124.1204643-1.08417901.361393-1.36343725.1971235-.27925823.6844565-.43805212 1.319632-.43805212h2.6064102l.0821348-3.76724831-.361393-.03832956c-.2409287-.03832956-.5639921-.03832956-1.0403738-.08213477-.4763817-.04380522-.9637147-.03854859-1.4455721-.03854859-.4818573 0-1.8398189.15901292-2.5680806.43827115-.7611155.27925824-1.3634372.68445645-1.8398189 1.16083814-.4380521.48185735-.79944513 1.04037381-1.00204424 1.64269548-.24092867.64065124-.361393 1.28130248-.361393 1.96575893v3.48799007h-2.92399796v4.04650653z" fill-rule="evenodd" transform="translate(-6)"/></svg>