<svg height="32" viewBox="0 0 232 32" width="232" xmlns="http://www.w3.org/2000/svg"><g fill="none" fill-rule="evenodd"><path d="m16.4476248 0-16.4476248 14.9333333h21.1252982l5.5123708-4.7247408h.0289977v-10.2085925z" fill="#ffd264"/><path d="m0 17.0666667 16.448129 14.9333333h10.2185377v-10.208494h-.0286863l-5.5121234-4.7248393zm123.350912-1.2545524c0-1.2751238.242542-2.5307429.72886-3.7662476.485702-1.2358096 1.194838-2.34392384 2.127718-3.32495241.931955-.98041905 2.06269-1.7752381 3.391589-2.3832381 1.328899-.60769524 2.846408-.91215238 4.552526-.91215238 2.042967 0 3.813188.41691429 5.310973 1.25043809 1.058311.58940953 1.925856 1.31321905 2.602941 2.17173334l-3.688681 4.25721906c-.19878-.5098667-.461355-.9310476-.788648-1.2650667-.327294-.3334095-.689413-.5982476-1.086049-.7945143-.396943-.1956571-.808372-.3331047-1.234902-.4117333-.426838-.0783238-.838266-.1179429-1.234594-.1179429-.833335 0-1.552333.1618286-2.157303.4857905-.605278.3233524-1.100841.7454476-1.487615 1.2650667-.386773.5199238-.674619 1.108419-.862921 1.7651809-.18861.6573715-.282607 1.3095619-.282607 1.9568762 0 .7259429.10879 1.4223238.327294 2.0891429.218196.6671238.535628 1.255619.952295 1.7654857.41636.5101714.926716.9170286 1.531994 1.2208762.604969.3041524 1.284212.4559238 2.038343.4559238.396636 0 .803442-.0438857 1.22011-.1322667.416359-.0880762.817926-.2355809 1.205008-.4412952.386773-.2060191.733483-.4708571 1.041361-.7945143.307261-.3233524.55042-.7207619.72886-1.191619l4.292417 3.6422095c-.272744.4339809-.607743.8384-1.004687 1.2126476-.644725.6083048-1.378825 1.1181714-2.20199 1.5299048-.823165.4120381-1.706119.7259428-2.647936.9417143-.942433.2154666-1.859595.3236571-2.752102.3236571-1.567127 0-3.000809-.3090286-4.299506-.926781-1.299313-.6180571-2.420494-1.4366476-3.362311-2.4569904-.942434-1.0197334-1.671294-2.1772191-2.18689-3.4718477-.515903-1.2949333-.773547-2.6084571-.773547-3.9427047m36.159517 5.6199619v5.0017524h-15.05582v-20.89051431h14.788006v5.00175241h-8.985785v2.9427809h7.67661v4.6488381h-7.67661v3.2953905zm13.141244 5.0312533v-20.89051426h14.490299v5.00175236h-8.688385v3.4721524h7.08181v4.6488381h-7.08181v7.7677714zm21.830955-10.4452571c0 .7058286.098928 1.3878857.297708 2.0449524.197856.6573714.495255 1.2406857.892507 1.7505523.396328.5104762.89713.9222096 1.502408 1.2358096.604969.3139047 1.324276.4708571 2.157303.4708571.833028 0 1.556957-.1621333 2.172097-.4854857.614523-.3239619 1.115634-.7451429 1.502407-1.2650667.387082-.5199238.674312-1.1132952.862922-1.7801143.188301-.666819.282915-1.3433904.282915-2.0303238 0-.7064381-.099545-1.3875809-.297708-2.0449523-.198472-.6570667-.501111-1.2358096-.9073-1.7362286-.407114-.5001143-.912848-.9020953-1.517509-1.2062476-.605586-.3038477-1.314414-.4562286-2.12741-.4562286-.833027 0-1.552333.1575619-2.157303.4708571-.605278.3142096-1.10608.7311238-1.502408 1.2507429-.396943.5199238-.68972 1.1081143-.878022 1.7654857-.18861.6573714-.282607 1.3287619-.282607 2.0153905m4.790446 10.5923047c-1.606882 0-3.064603-.3038476-4.373778-.9118476-1.309175-.6076952-2.430048-1.4073905-3.362312-2.3981714-.932571-.9901714-1.6565-2.1229714-2.171788-3.3984-.516212-1.2748191-.773855-2.5892571-.773855-3.9427048 0-1.3729523.267814-2.6968381.803441-3.9722666.535628-1.2748191 1.283904-2.39817146 2.246369-3.36883813.96185-.97127619 2.102447-1.74598095 3.421792-2.32441905 1.318728-.57874285 2.761964-.86826666 4.329399-.86826666 1.606575 0 3.064296.30445714 4.373471.91215238 1.309175.608 2.42974 1.41226666 3.362311 2.4128.932263 1.00053333 1.65157 2.13820956 2.156995 3.41333336.506042 1.2751238.758755 2.5792.758755 3.9128381 0 1.3735619-.267506 2.6922666-.803133 3.9579428-.535628 1.2650667-1.27959 2.3829334-2.231577 3.3542095-.951987.9706667-2.087961 1.7505524-3.40669 2.3390477-1.319345.5884952-2.762581.8825904-4.3294.8825904m19.042825-11.592899h3.659711c.35688 0 .688797-.1959619.996675-.5884952.307261-.3922286.461046-.9414096.461046-1.6475429 0-.7256381-.17844-1.28-.535319-1.6624762-.357188-.3824762-.714068-.5738667-1.070947-.5738667h-3.511166zm-5.802221 11.4163809v-20.89051424h9.699852c1.031191 0 1.983487.21089524 2.856578.63238095.872475.42209524 1.621676.97127619 2.246369 1.64784762.624694.67657143 1.115634 1.45188572 1.472514 2.32441907.357496.8731428.535936 1.7508571.535936 2.6334476 0 1.2163048-.267814 2.3491048-.803442 3.3980952-.535627 1.0499048-1.279281 1.9081143-2.231576 2.5749334l-1.328899 1.0197333 6.499647 6.6596571h-6.854061l-6.290697-6.4143238v6.4143238zm-172.7778415-10.6217447c0-1.2751238.2428507-2.5307429.7288603-3.7662476.4860097-1.2358096 1.1948379-2.34392384 2.1277175-3.32495241.9319551-.98041905 2.0626902-1.7752381 3.3915891-2.3832381 1.3288989-.60769524 2.8464077-.91215238 4.5528347-.91215238 2.0426581 0 3.8128796.41691429 5.3109727 1.25043809 1.0583114.58940953 1.9255474 1.31321905 2.6029406 2.17173334l-3.6889887 4.25721906c-.1987801-.5098667-.4610466-.9310476-.7886485-1.2650667-.3269856-.3334095-.6894125-.5982476-1.08574-.7945143-.397252-.1956571-.8086806-.3331047-1.2349021-.4117333-.4268379-.0783238-.8382664-.1179429-1.2349021-.1179429-.8330272 0-1.5523338.1618286-2.1573033.4857905-.6052777.3233524-1.1005329.7454476-1.4876148 1.2650667-.3867737.5199238-.6743114 1.108419-.8629213 1.7651809-.18861.6573715-.2826068 1.3095619-.2826068 1.9568762 0 .7259429.1090979 1.4223238.3276019 2.0891429.2178877.6671238.5353195 1.255619.9519872 1.7654857.4163595.5101714.9267159.9170286 1.5323018 1.2208762.6046613.3041524 1.2839037.4559238 2.0383435.4559238.3963274 0 .8031332-.0438857 1.2198009-.1322667.4163596-.0880762.8182344-.2355809 1.205008-.4412952.3867737-.2060191.7337914-.4708571 1.0413612-.7945143.3072616-.3233524.5504205-.7207619.7288604-1.191619l4.2927255 3.6422095c-.273053.4339809-.6080514.8384-1.004687 1.2126476-.6450337.6083048-1.3791332 1.1181714-2.2019904 1.5299048-.8234735.4120381-1.7061188.7259428-2.648244.9417143-.9421252.2154666-1.8595955.3236571-2.7521027.3236571-1.5671268 0-3.0005008-.3090286-4.2991974-.926781-1.2996212-.6180571-2.4204944-1.4366476-3.3626196-2.4569904-.9421252-1.0197334-1.6709856-2.1772191-2.1865811-3.4718477-.5162119-1.2949333-.7738555-2.6084571-.7738555-3.9427047m39.1974968-10.47878097v21.33333337h-5.6304222v-8.3531981h-6.8724888v8.3531981h-5.6304223v-21.33333337h5.6304223v6.85839887l6.8724888 6.1217364v-12.98013527zm15.1208558 17.15673427-2.8393292-10.516502-1.9336596 6.4121065zm-5.5272443-17.15673427h5.3761429l7.4302453 21.33333337h-5.9805481l-1.2985958-4.1765991h-5.7083782l-1.2688761 4.1765991h-6.0102681zm19.7970622 10.84701977v10.4863136h-5.924007v-21.33333337h4.617805l8.658188 10.84701977v-10.84701977h5.924007v21.33333337h-4.708431z" fill="#00a09b"/></g></svg>